<svg width="242" height="37" viewBox="0 0 242 37" fill="none" xmlns="http://www.w3.org/2000/svg">
<path d="M21.8958 3.05176e-05H20.7076V22.9848H21.8958V3.05176e-05Z" fill="#262626"/>
<path d="M21.8958 30.8172H20.7076V36.4796H21.8958V30.8172Z" fill="#262626"/>
<path d="M29.6074 3.05176e-05H28.4192V22.9848H29.6074V3.05176e-05Z" fill="#262626"/>
<path d="M29.6074 30.8172H28.4192V36.4796H29.6074V30.8172Z" fill="#262626"/>
<path d="M0.00170898 12.8907L0.00170898 14.0789L20.9763 14.0789L20.9763 12.8907L0.00170898 12.8907Z" fill="#262626"/>
<path d="M29.6086 12.8901L29.6086 14.0783L42.486 14.0783L42.486 12.8901L29.6086 12.8901Z" fill="#262626"/>
<path d="M6.64596 3.05176e-05H5.45776V5.65857H6.64596V3.05176e-05Z" fill="#262626"/>
<path d="M6.64596 13.4968H5.45776V36.4796H6.64596V13.4968Z" fill="#262626"/>
<path d="M14.2719 3.05176e-05H13.0837V5.65857H14.2719V3.05176e-05Z" fill="#262626"/>
<path d="M14.2719 13.4968H13.0837V36.4796H14.2719V13.4968Z" fill="#262626"/>
<path d="M0.00146484 5.2417L0.00146484 6.4299L20.9761 6.4299L20.9761 5.2417L0.00146484 5.2417Z" fill="#262626"/>
<path d="M29.6084 5.24106L29.6084 6.42926L42.4857 6.42926L42.4857 5.24106L29.6084 5.24106Z" fill="#262626"/>
<path d="M42.4868 0.171448H36.2283V6.42993H42.4868V0.171448Z" fill="#262626"/>
<path d="M42.4868 12.889H36.2283V36.4796H42.4868V12.889Z" fill="#262626"/>
<path d="M73.1928 36.4796L57.4969 12.8832H65.0995L76.6113 30.1374H82.6283V36.4796H73.1928Z" fill="#262626"/>
<path d="M98.3436 0.171448L114.03 23.7679H106.429L94.8842 6.43967H88.914L88.9062 0.171448H98.3436Z" fill="#262626"/>
<path d="M95.1647 12.889H88.9062V36.4796H95.1647V12.889Z" fill="#262626"/>
<path d="M82.6302 0.171448H76.3717V23.8614H82.6302V0.171448Z" fill="#262626"/>
<path d="M116.352 12.889H122.674V36.4796H115.025L110.726 30.2387H116.352V12.889Z" fill="#262626"/>
<path d="M55.0796 36.4796H48.7568V0.171448H56.4061L60.705 6.4124H55.0796V36.4796Z" fill="#262626"/>
<path d="M122.674 0.171448H116.416V6.42993H122.674V0.171448Z" fill="#262626"/>
<path d="M0.000244141 30.2224L0.000244141 31.4106L6.05225 31.4106L6.05225 30.2224L0.000244141 30.2224Z" fill="#262626"/>
<path d="M0 22.5734L0 23.7616L6.05201 23.7616L6.05201 22.5734L0 22.5734Z" fill="#262626"/>
<path d="M13.853 30.222L13.853 31.4102L33.1291 31.4102L33.1291 30.222L13.853 30.222Z" fill="#262626"/>
<path d="M13.8528 22.573L13.8528 23.7612L33.1288 23.7612L33.1288 22.573L13.8528 22.573Z" fill="#262626"/>
<path d="M132.009 15.5767H138.292L136.525 14.0059V8.37737H143.615V14.0059L141.848 15.5767H148.131L146.364 14.0059V1.83255L148.109 0.261794H141.848L143.615 1.83255V7.1993H136.525V1.83255L138.292 0.261794H132.009L133.776 1.83255V14.0059L132.009 15.5767Z" fill="#262626"/>
<path d="M157.48 5.54128L158.069 4.05779L157.196 3.68692L156.607 5.19223C156.106 5.06133 155.56 4.97406 155.015 4.97406C151.96 4.97406 149.583 7.3302 149.583 10.4063C149.583 12.6097 150.804 14.4204 152.593 15.2931L152.004 16.7984L152.899 17.1474L153.488 15.6421C153.968 15.773 154.491 15.8385 155.015 15.8385C158.069 15.8385 160.447 13.4823 160.447 10.4063C160.447 8.22466 159.269 6.41393 157.48 5.54128ZM152.462 10.9299V9.88268C152.462 7.39565 153.313 5.89034 155.015 5.89034C155.473 5.89034 155.866 5.99942 156.193 6.19576L153.139 13.9187C152.68 13.2424 152.462 12.217 152.462 10.9299ZM157.567 10.9299C157.567 13.4169 156.716 14.9222 155.015 14.9222C154.578 14.9222 154.208 14.8349 153.88 14.6386L156.935 6.95933C157.349 7.63562 157.567 8.63916 157.567 9.88268V10.9299Z" fill="#262626"/>
<path d="M168.935 14.115L165.292 13.5041V12.1734C165.794 12.3261 166.339 12.3915 166.906 12.3915C169.524 12.3915 171.4 10.9517 171.4 8.85732C171.4 7.98468 171.073 7.41746 170.462 6.76298L172.753 5.23586H166.906C164.157 5.23586 162.347 6.93751 162.347 8.85732C162.347 10.2972 163.35 11.4534 164.834 12.0207L162.325 14.8786L165.052 15.3585C163.132 15.8385 161.998 16.7766 161.998 18.0637C161.998 19.5036 163.612 20.7035 166.972 20.7035C170.331 20.7035 172.229 18.98 172.229 17.0383C172.229 15.7512 171.64 14.5731 168.935 14.115ZM165.052 8.72643C165.052 6.93751 165.728 5.89034 166.906 5.89034C168.084 5.89034 168.782 6.93751 168.782 8.72643V8.90096C168.782 10.6899 168.084 11.737 166.906 11.737C165.728 11.737 165.052 10.6899 165.052 8.90096V8.72643ZM167.19 19.7872C165.335 19.7872 164.485 18.9145 164.485 17.7801C164.485 17.082 164.834 16.253 165.924 15.533L168.521 15.9912C169.655 16.1875 170.266 16.6675 170.266 17.671C170.266 18.8491 169.262 19.7872 167.19 19.7872Z" fill="#262626"/>
<path d="M178.127 15.9257C180.177 15.9257 181.857 14.7695 181.857 12.7406C181.857 11.2135 181.05 10.3408 178.323 9.0973C176.556 8.29011 176.032 7.85379 176.032 7.13386C176.032 6.43574 176.665 5.89034 177.538 5.89034C178.519 5.89034 179.414 6.43574 180.832 9.0973L181.443 6.06487C180.526 5.47583 179.065 4.97406 177.756 4.97406C175.334 4.97406 174.047 6.37029 174.047 8.0065C174.047 9.55544 174.876 10.4281 177.778 11.7807C179.436 12.5224 179.916 12.9369 179.916 13.635C179.916 14.3768 179.348 14.8786 178.432 14.8786C176.992 14.8786 175.814 13.526 174.767 11.5625L173.807 14.4204C174.701 15.184 176.425 15.9257 178.127 15.9257Z" fill="#262626"/>
<path d="M195.558 15.5767L194.075 14.1804L189.733 9.18457L191.871 7.59199L195.187 5.23586H190.17V7.50473L187.334 9.72997V0L183.254 1.83255L184.847 2.68338V14.2023L183.276 15.5767H188.904L187.334 14.2023V9.94813L191.173 14.4641L189.995 15.5767H195.558Z" fill="#262626"/>
<path d="M201.225 15.8385C204.279 15.8385 206.657 13.4823 206.657 10.4063C206.657 7.3302 204.279 4.97406 201.225 4.97406C198.17 4.97406 195.793 7.3302 195.793 10.4063C195.793 13.4823 198.17 15.8385 201.225 15.8385ZM201.225 14.9222C199.523 14.9222 198.672 13.4169 198.672 10.9299V9.88268C198.672 7.39565 199.523 5.89034 201.225 5.89034C202.926 5.89034 203.777 7.39565 203.777 9.88268V10.9299C203.777 13.4169 202.926 14.9222 201.225 14.9222Z" fill="#262626"/>
<path d="M207.989 15.5767H213.618L212.047 14.2023V0L208.011 1.83255L209.56 2.63974V14.2023L207.989 15.5767Z" fill="#262626"/>
<path d="M220.989 13.7441C218.981 13.7441 217.454 12.2824 217.28 9.68634H224.435C224.435 6.80661 222.581 4.97406 219.941 4.97406C216.996 4.97406 214.989 7.26475 214.989 10.4935C214.989 13.635 216.996 15.8385 219.985 15.8385C222.712 15.8385 224.305 13.875 224.305 11.7807C223.65 12.9587 222.472 13.7441 220.989 13.7441ZM219.701 5.89034C221.272 5.89034 221.948 7.3302 221.948 8.77006H217.28C217.411 6.80661 218.48 5.89034 219.701 5.89034Z" fill="#262626"/>
<path d="M232.805 15.5767H238.434L236.863 14.2023V8.11558C236.863 5.86852 235.838 4.97406 234.201 4.97406C232.652 4.97406 231.278 5.69399 229.925 6.7848V4.84317L225.933 6.67572L227.438 7.4611V14.2023L225.868 15.5767H231.496L229.925 14.2023V7.1993C230.776 6.91569 231.562 6.74117 232.26 6.74117C233.656 6.74117 234.376 7.3302 234.376 9.03185V14.2023L232.805 15.5767Z" fill="#262626"/>
<path d="M133.885 24.4149C134.866 24.4149 135.652 23.6296 135.652 22.6478C135.652 21.6661 134.866 20.8807 133.885 20.8807C132.903 20.8807 132.118 21.6661 132.118 22.6478C132.118 23.6296 132.903 24.4149 133.885 24.4149ZM131.31 36.4574H136.939L135.368 35.083V25.7239L131.332 27.5128L132.881 28.3637V35.083L131.31 36.4574Z" fill="#262626"/>
<path d="M143.848 36.4574H150.131L148.364 34.8867V22.7133L150.131 21.1425H143.848L145.615 22.7133V34.8867L143.848 36.4574Z" fill="#262626"/>
<path d="M158.679 36.4574H164.308L162.737 35.083V28.9963C162.737 26.7493 161.712 25.8548 160.075 25.8548C158.526 25.8548 157.152 26.5747 155.799 27.6655V25.7239L151.807 27.5565L153.312 28.3418V35.083L151.742 36.4574H157.37L155.799 35.083V28.08C156.65 27.7964 157.436 27.6219 158.134 27.6219C159.53 27.6219 160.25 28.2109 160.25 29.9126V35.083L158.679 36.4574Z" fill="#262626"/>
<path d="M172.229 36.4574H177.858L176.287 35.083V28.9963C176.287 26.7493 175.261 25.8548 173.625 25.8548C172.076 25.8548 170.702 26.5747 169.349 27.6655V25.7239L165.357 27.5565L166.862 28.3418V35.083L165.292 36.4574H170.92L169.349 35.083V28.08C170.2 27.7964 170.986 27.6219 171.684 27.6219C173.08 27.6219 173.8 28.2109 173.8 29.9126V35.083L172.229 36.4574Z" fill="#262626"/>
<path d="M178.689 36.4574H184.317L182.746 35.083V20.8807L178.71 22.7133L180.259 23.5205V35.083L178.689 36.4574Z" fill="#262626"/>
<path d="M192.059 36.8937L196.029 35.0612L194.546 34.3413V29.2799C194.546 26.8583 193.673 25.9203 190.859 25.9203C187.39 25.9203 185.994 27.3601 185.994 28.6691C185.994 29.4545 186.496 29.978 187.303 29.978C189.353 29.978 188.917 26.5747 190.902 26.5747C191.666 26.5747 192.059 27.0329 192.059 28.2109V30.1744C189.004 30.7852 185.623 31.9851 185.623 34.4503C185.623 35.8466 186.757 36.7192 188.394 36.7192C189.942 36.7192 191.121 35.9556 192.059 34.8867V36.8937ZM189.964 35.0176C188.917 35.0176 188.328 34.3631 188.328 33.5777C188.328 32.6178 188.83 31.7451 192.059 30.7634V34.1667C191.339 34.7121 190.684 35.0176 189.964 35.0176Z" fill="#262626"/>
<path d="M203.93 36.4574H209.559L207.988 35.083V28.9963C207.988 26.7493 206.963 25.8548 205.327 25.8548C203.778 25.8548 202.403 26.5747 201.051 27.6655V25.7239L197.058 27.5565L198.564 28.3418V35.083L196.993 36.4574H202.622L201.051 35.083V28.08C201.902 27.7964 202.687 27.6219 203.385 27.6219C204.781 27.6219 205.501 28.2109 205.501 29.9126V35.083L203.93 36.4574Z" fill="#262626"/>
<path d="M221.996 35.0612L220.556 34.3413V20.8807L216.542 22.7133L218.069 23.5205V26.2693C217.437 25.9857 216.848 25.8766 216.128 25.8766C212.877 25.8766 210.892 28.4291 210.892 31.7233C210.892 34.6685 212.659 36.7192 215.081 36.7192C216.28 36.7192 217.284 36.1738 218.069 34.9085V36.8937L221.996 35.0612ZM216.499 35.0176C214.95 35.0176 213.553 33.8177 213.553 31.0907C213.553 28.1237 214.775 26.7056 216.368 26.7056C217.459 26.7056 218.069 27.3601 218.069 28.7782V34.4503C217.568 34.8648 217.131 35.0176 216.499 35.0176Z" fill="#262626"/>
<path d="M229.418 34.6249C227.411 34.6249 225.884 33.1632 225.71 30.5671H232.865C232.865 27.6874 231.011 25.8548 228.371 25.8548C225.426 25.8548 223.419 28.1455 223.419 31.3743C223.419 34.5158 225.426 36.7192 228.415 36.7192C231.142 36.7192 232.735 34.7558 232.735 32.6614C232.08 33.8395 230.902 34.6249 229.418 34.6249ZM228.131 26.7711C229.702 26.7711 230.378 28.2109 230.378 29.6508H225.71C225.841 27.6874 226.91 26.7711 228.131 26.7711Z" fill="#262626"/>
<path d="M238.53 36.7192C239.992 36.7192 241.322 35.9993 241.824 34.6685C241.322 35.1266 240.646 35.4102 239.817 35.4102C239.01 35.4102 238.53 35.0176 238.53 34.014V27.1638H241.846V26.1166H238.53V22.9751L233.818 27.1638H236.043V33.8395C236.043 36.0647 237.025 36.7192 238.53 36.7192Z" fill="#262626"/>
</svg>
